<svg width="14" height="10" viewBox="0 0 14 10" fill="none" xmlns="http://www.w3.org/2000/svg">
<path d="M13.2177 4.2463C13.3835 4.45302 13.4753 4.72159 13.4753 5.00006C13.4753 5.27853 13.3835 5.5471 13.2177 5.75382C12.1677 7.02509 9.77764 9.5001 6.98764 9.5001C4.19764 9.5001 1.80764 7.02509 0.757639 5.75382C0.591799 5.5471 0.5 5.27853 0.5 5.00006C0.5 4.72159 0.591799 4.45302 0.757639 4.2463C1.80764 2.97503 4.19764 0.5 6.98764 0.5C9.77764 0.5 12.1677 2.97503 13.2177 4.2463Z" stroke="#121212" stroke-linecap="round" stroke-linejoin="round"/>
<path d="M6.98828 7C8.09285 7 8.98828 6.10457 8.98828 5C8.98828 3.89543 8.09285 3 6.98828 3C5.88371 3 4.98828 3.89543 4.98828 5C4.98828 6.10457 5.88371 7 6.98828 7Z" stroke="#121212" stroke-linecap="round" stroke-linejoin="round"/>
</svg>
