<svg width="48" height="48" viewBox="0 0 48 48" fill="none" xmlns="http://www.w3.org/2000/svg">
<rect width="48" height="48" fill="#EFE6FC"/>
<g clip-path="url(#clip0_1_3067)">
<path d="M16.7298 21.2636C16.7298 21.6752 16.7743 22.0089 16.8521 22.2536C16.9411 22.4983 17.0523 22.7653 17.2081 23.0545C17.2637 23.1435 17.2859 23.2325 17.2859 23.3103C17.2859 23.4216 17.2192 23.5328 17.0746 23.6441L16.3738 24.1112C16.2737 24.178 16.1736 24.2113 16.0846 24.2113C15.9734 24.2113 15.8621 24.1557 15.7509 24.0556C15.5952 23.8888 15.4617 23.7108 15.3505 23.5328C15.2392 23.3437 15.128 23.1324 15.0056 22.8765C14.138 23.8999 13.0479 24.4116 11.7353 24.4116C10.801 24.4116 10.0557 24.1446 9.51064 23.6107C8.96559 23.0768 8.6875 22.3649 8.6875 21.475C8.6875 20.5295 9.0212 19.762 9.69974 19.1835C10.3783 18.6051 11.2793 18.3159 12.425 18.3159C12.8032 18.3159 13.1925 18.3493 13.6041 18.4049C14.0156 18.4605 14.4383 18.5495 14.8833 18.6496V17.8376C14.8833 16.9922 14.7053 16.4027 14.3605 16.0578C14.0045 15.713 13.4039 15.5462 12.5473 15.5462C12.158 15.5462 11.7576 15.5907 11.346 15.6908C10.9344 15.7909 10.534 15.9132 10.1447 16.069C9.9667 16.1468 9.83322 16.1913 9.75535 16.2136C9.67749 16.2358 9.62187 16.2469 9.57738 16.2469C9.42165 16.2469 9.34378 16.1357 9.34378 15.9021V15.3571C9.34378 15.1791 9.36603 15.0456 9.42165 14.9677C9.47727 14.8899 9.57738 14.812 9.73311 14.7341C10.1224 14.5339 10.5896 14.3671 11.1347 14.2336C11.6797 14.089 12.2581 14.0222 12.8699 14.0222C14.1936 14.0222 15.1614 14.3226 15.7843 14.9232C16.3961 15.5239 16.7075 16.436 16.7075 17.6596V21.2636H16.7298ZM12.2136 22.9544C12.5807 22.9544 12.9589 22.8877 13.3594 22.7542C13.7598 22.6207 14.1158 22.376 14.4161 22.0423C14.5941 21.8309 14.7275 21.5973 14.7943 21.3304C14.861 21.0634 14.9055 20.7408 14.9055 20.3626V19.8954C14.5829 19.8176 14.2381 19.7508 13.8822 19.7063C13.5262 19.6618 13.1814 19.6396 12.8366 19.6396C12.0913 19.6396 11.5462 19.7842 11.1792 20.0845C10.8121 20.3849 10.6341 20.8076 10.6341 21.3637C10.6341 21.8865 10.7676 22.2759 11.0457 22.5428C11.3126 22.8209 11.702 22.9544 12.2136 22.9544ZM21.1458 24.1557C20.9456 24.1557 20.8121 24.1224 20.7231 24.0445C20.6341 23.9778 20.5562 23.822 20.4895 23.6107L17.8755 15.0122C17.8087 14.7898 17.7754 14.6452 17.7754 14.5673C17.7754 14.3893 17.8644 14.2892 18.0423 14.2892H19.1324C19.3438 14.2892 19.4884 14.3226 19.5663 14.4004C19.6552 14.4672 19.722 14.6229 19.7887 14.8343L21.6575 22.198L23.3927 14.8343C23.4483 14.6118 23.5151 14.4672 23.6041 14.4004C23.6931 14.3337 23.8488 14.2892 24.049 14.2892H24.9389C25.1502 14.2892 25.2948 14.3226 25.3838 14.4004C25.4728 14.4672 25.5507 14.6229 25.5952 14.8343L27.3527 22.287L29.277 14.8343C29.3438 14.6118 29.4216 14.4672 29.4995 14.4004C29.5885 14.3337 29.7331 14.2892 29.9333 14.2892H30.9678C31.1458 14.2892 31.2459 14.3782 31.2459 14.5673C31.2459 14.6229 31.2348 14.6785 31.2236 14.7453C31.2125 14.812 31.1903 14.901 31.1458 15.0234L28.465 23.6218C28.3983 23.8443 28.3204 23.9889 28.2314 24.0556C28.1424 24.1224 27.9978 24.1669 27.8087 24.1669H26.8521C26.6408 24.1669 26.4962 24.1335 26.4072 24.0556C26.3182 23.9778 26.2403 23.8331 26.1958 23.6107L24.4717 16.436L22.7587 23.5996C22.7031 23.822 22.6363 23.9666 22.5473 24.0445C22.4584 24.1224 22.3026 24.1557 22.1024 24.1557H21.1458ZM35.4394 24.4561C34.861 24.4561 34.2826 24.3893 33.7264 24.2558C33.1703 24.1224 32.7364 23.9778 32.4472 23.8109C32.2693 23.7108 32.1469 23.5996 32.1024 23.4994C32.0579 23.3993 32.0357 23.2881 32.0357 23.188V22.6207C32.0357 22.3871 32.1247 22.2759 32.2915 22.2759C32.3582 22.2759 32.425 22.287 32.4917 22.3092C32.5585 22.3315 32.6586 22.376 32.7698 22.4205C33.148 22.5873 33.5596 22.7208 33.9934 22.8098C34.4383 22.8988 34.8721 22.9433 35.3171 22.9433C36.0179 22.9433 36.5629 22.8209 36.9411 22.5762C37.3193 22.3315 37.5195 21.9755 37.5195 21.5195C37.5195 21.208 37.4194 20.9522 37.2192 20.7408C37.019 20.5295 36.6408 20.3404 36.0957 20.1624L34.4828 19.6618C33.6708 19.406 33.0701 19.0278 32.7031 18.5273C32.336 18.0378 32.1469 17.4928 32.1469 16.9143C32.1469 16.4472 32.247 16.0356 32.4472 15.6796C32.6475 15.3237 32.9144 15.0122 33.2481 14.7675C33.5818 14.5117 33.96 14.3226 34.405 14.1891C34.8499 14.0556 35.3171 14 35.8065 14C36.0512 14 36.3071 14.0111 36.5518 14.0445C36.8076 14.0779 37.0412 14.1224 37.2748 14.1669C37.4973 14.2225 37.7086 14.2781 37.9089 14.3448C38.1091 14.4116 38.2648 14.4783 38.376 14.5451C38.5318 14.634 38.643 14.723 38.7097 14.8231C38.7765 14.9121 38.8099 15.0345 38.8099 15.1902V15.713C38.8099 15.9466 38.7209 16.069 38.554 16.069C38.465 16.069 38.3204 16.0245 38.1313 15.9355C37.4973 15.6463 36.7854 15.5017 35.9956 15.5017C35.3616 15.5017 34.861 15.6018 34.5162 15.8131C34.1714 16.0245 33.9934 16.3471 33.9934 16.8031C33.9934 17.1146 34.1046 17.3815 34.3271 17.5929C34.5496 17.8042 34.9611 18.0156 35.5507 18.2047L37.1302 18.7052C37.9311 18.9611 38.5095 19.317 38.8543 19.7731C39.1992 20.2291 39.366 20.7519 39.366 21.3304C39.366 21.8087 39.2659 22.2425 39.0768 22.6207C38.8766 22.9989 38.6096 23.3326 38.2648 23.5996C37.92 23.8776 37.5084 24.0779 37.0301 24.2225C36.5295 24.3782 36.0067 24.4561 35.4394 24.4561Z" fill="#252F3E"/>
<path fill-rule="evenodd" clip-rule="evenodd" d="M37.5418 29.8625C33.8822 32.5655 28.5652 34.0004 23.9935 34.0004C17.5863 34.0004 11.8133 31.6311 7.45285 27.6934C7.10803 27.3819 7.41948 26.9592 7.83105 27.2039C12.5474 29.9403 18.365 31.5977 24.3828 31.5977C28.4428 31.5977 32.9034 30.7523 37.0079 29.0171C37.6197 28.739 38.1425 29.4175 37.5418 29.8625Z" fill="#FF9900"/>
<path fill-rule="evenodd" clip-rule="evenodd" d="M39.0648 28.127C38.5976 27.5263 35.9725 27.8378 34.7823 27.9824C34.4263 28.0269 34.3707 27.7154 34.6933 27.4818C36.7845 26.0136 40.2217 26.4362 40.6221 26.9257C41.0226 27.4262 40.5109 30.8634 38.5531 32.5097C38.2528 32.7655 37.9636 32.632 38.0971 32.2983C38.542 31.1971 39.532 28.7166 39.0648 28.127Z" fill="#FF9900"/>
</g>
<defs>
<clipPath id="clip0_1_3067">
<rect width="34.1297" height="20" fill="white" transform="translate(7 14)"/>
</clipPath>
</defs>
</svg>
