<svg width="48" height="48" viewBox="0 0 48 48" fill="none" xmlns="http://www.w3.org/2000/svg">
<rect width="48" height="48" fill="#EFE6FC"/>
<g clip-path="url(#clip0_1_3082)">
<path d="M14.0473 35.0667L12 10.0469L36.4496 10.0972L34.2848 35.0667L24.3171 37.9529L14.0473 35.0667Z" fill="#1B73BA"/>
<path d="M24.3164 35.5365V12.4297L34.3849 12.4632L32.5894 33.1369L24.3164 35.5365Z" fill="#1C88C7"/>
<path d="M31.8851 15.3828H16.3965L16.8161 18.4031H24.1659L16.9336 21.5076L17.353 24.4274H28.0089L27.6228 28.505L24.0149 29.2099L20.7428 28.3709L20.491 26.0551H17.4873L17.8899 30.8712L24.3337 32.6667L30.5092 30.7034L31.2979 21.2894H24.7699L31.8849 18.3361L31.8851 15.3828Z" fill="white"/>
</g>
<defs>
<clipPath id="clip0_1_3082">
<rect width="24.4496" height="28" fill="white" transform="translate(12 10)"/>
</clipPath>
</defs>
</svg>
