<svg width="48" height="48" viewBox="0 0 48 48" fill="none" xmlns="http://www.w3.org/2000/svg">
<rect width="48" height="48" fill="#EFE6FC"/>
<path d="M35.7609 13.8076C35.7609 11.9036 30.6089 10.2236 24.2249 10.2236C17.8409 10.2236 12.4649 12.0156 12.4649 13.9196C12.4649 14.1436 12.5769 14.4796 12.6889 14.5916L12.1289 14.0316V34.1916H12.5769C19.4089 22.6556 35.4249 15.0396 35.4249 15.0396C35.2009 15.1516 34.9769 15.1516 34.8649 15.2636C35.3129 14.8156 35.7609 14.2556 35.7609 13.8076Z" fill="#A0CEC7"/>
<path d="M36.209 14.032C36.321 11.68 30.609 10 24.001 10C17.393 10 11.793 11.568 11.793 14.032V34.192C11.793 36.432 17.617 38 24.001 38C30.385 38 36.209 36.544 36.209 34.192V14.032ZM24.001 10.672C30.833 10.672 35.425 12.352 35.425 13.92C35.425 15.6 30.833 17.168 24.001 17.168C17.169 17.168 12.577 15.6 12.577 14.032C12.577 12.464 17.169 10.672 24.001 10.672ZM35.425 34.192C35.089 35.76 30.497 37.216 24.001 37.216C17.505 37.216 12.913 35.648 12.577 34.192V28.144C13.921 29.824 18.401 30.944 24.001 30.944C29.489 30.944 34.081 29.824 35.425 28.256V34.192ZM35.425 27.36C34.977 28.928 30.497 30.384 24.001 30.384C17.505 30.384 12.913 28.816 12.577 27.36V27.472V21.872C13.921 23.552 18.401 24.56 24.001 24.56C29.489 24.56 34.081 23.44 35.425 21.872V27.36ZM35.425 20.976C34.977 22.544 30.497 24 24.001 24C17.505 24 12.913 22.432 12.577 20.976V21.2V15.152C13.921 16.608 18.513 17.952 24.001 17.952C29.489 17.952 34.081 16.832 35.425 15.264V20.976Z" fill="#222222"/>
</svg>
