<svg width="48" height="48" viewBox="0 0 48 48" fill="none" xmlns="http://www.w3.org/2000/svg">
<rect width="48" height="48" fill="#EFE6FC"/>
<g clip-path="url(#clip0_1_3087)">
<path d="M22.8643 10H27.4428V30.9714C25.0976 31.4147 23.3711 31.5892 21.5031 31.5892C15.911 31.5833 13 29.0867 13 24.2917C13 19.6717 16.0877 16.6733 20.8726 16.6733C21.6151 16.6733 22.1807 16.7317 22.8643 16.9067V10ZM23.0247 20.6859C22.4884 20.5109 22.0466 20.4526 21.4808 20.4526C19.1651 20.4526 17.8275 21.8642 17.8275 24.3381C17.8275 26.7468 19.1062 28.0767 21.4514 28.0767C21.9581 28.0767 22.3706 28.0482 23.0247 27.9607V20.6859Z" fill="#2BA977"/>
<path d="M34.93 17.2364V27.7365C34.93 31.3525 34.659 33.0914 33.8634 34.5906C33.1209 36.032 32.1428 36.9409 30.1216 37.9447L25.873 35.944C27.8942 35.0053 28.8724 34.1758 29.497 32.91C30.151 31.6156 30.3573 30.1164 30.3573 26.1731V17.2364L34.93 17.2364ZM29.8959 10H34.4744V14.6492H29.8959V10Z" fill="#2BA977"/>
</g>
<defs>
<clipPath id="clip0_1_3087">
<rect width="22" height="28" fill="white" transform="translate(13 10)"/>
</clipPath>
</defs>
</svg>
