<svg width="48" height="48" viewBox="0 0 48 48" fill="none" xmlns="http://www.w3.org/2000/svg">
<rect width="48" height="48" fill="#EFE6FC"/>
<g clip-path="url(#clip0_1_3115)">
<path d="M19.5743 27.3039C18.7364 26.6512 17.8424 26.0258 17.2317 25.1444C15.946 23.5903 14.9563 21.7913 14.2797 19.9005C13.8707 18.6709 13.7306 17.3527 13.2029 16.1709C12.6517 15.3122 13.2979 14.3742 14.2477 14.1014C14.6702 14.0207 15.4137 13.6257 14.5162 13.9084C13.7115 14.4927 13.634 13.3774 14.459 13.3068C15.0221 13.2328 15.2293 12.7767 15.0366 12.366C14.4319 11.9754 16.5022 11.5469 15.4604 10.9642C14.3759 9.80527 16.9781 9.58215 16.336 10.8986C16.1825 11.9108 18.1549 10.7127 17.6969 11.8818C18.1622 12.4433 19.439 12.0099 19.4069 12.7972C20.0846 12.8433 20.3173 13.4075 20.9528 13.4509C21.6125 13.7459 22.8073 13.9778 23.0314 14.7135C22.3774 15.226 20.8635 13.6547 20.7904 15.0736C20.9882 17.1701 20.9377 19.3297 21.7121 21.3261C22.0784 22.5348 22.9668 23.4862 23.7687 24.4278C24.5364 25.3497 25.576 25.9991 26.6358 26.5455C27.5652 26.9795 28.5673 27.2671 29.5805 27.448C29.9913 27.1369 30.7166 25.9801 31.3572 26.4676C31.3882 27.0163 30.0857 27.6139 31.2961 27.5532C32.0075 27.3406 32.5004 28.0973 33.0859 27.4146C33.6254 28.0473 35.328 27.0106 34.9443 28.3038C34.425 28.6355 33.6681 28.4351 33.1483 28.8915C32.2914 28.4674 31.609 29.2704 30.6599 29.1691C29.6063 29.356 28.534 29.4312 27.4659 29.4327C25.7131 29.2958 23.9234 29.238 22.256 28.6337C21.3165 28.3634 20.3999 27.8337 19.5743 27.3039ZM21.0545 27.9393C21.9716 28.3316 22.8686 28.7456 23.8739 28.8708C25.4687 29.0901 27.1157 29.4283 28.7161 29.1201C27.9918 28.7963 27.2427 29.2459 26.5212 28.8886C25.6558 29.0728 24.727 28.8413 23.8468 28.7272C22.8465 28.2861 21.7666 27.9828 20.8298 27.4095C19.6586 26.9862 21.4351 27.9527 21.7514 28.0312C22.4831 28.4422 20.9466 27.8202 20.7296 27.6494C20.1167 27.3089 20.0387 27.3801 20.6691 27.7257C20.796 27.7992 20.9214 27.8765 21.0545 27.9393ZM19.3091 26.718C20.1982 27.0441 19.3052 26.0992 18.8984 26.1538C18.7179 25.8438 18.2089 25.6479 18.5679 25.4816C17.9223 25.7037 17.8913 24.6374 17.588 24.79C16.9046 24.5764 17.3221 23.8195 16.5078 23.3545C16.4336 22.8647 15.6992 22.4402 15.4654 21.7017C15.362 21.3234 14.6354 20.2378 15.0816 21.2482C15.4615 22.2208 16.1296 23.0545 16.686 23.8863C17.1176 24.6785 17.6279 25.5072 18.414 26.0013C18.6793 26.2534 18.935 26.6389 19.3091 26.718ZM16.749 23.9341C16.7797 23.8011 16.9114 24.2218 16.749 23.9341V23.9341ZM20.3741 27.1086C20.0908 26.9985 20.5707 27.0213 20.3741 27.1086V27.1086ZM20.8562 27.2828C20.6359 27.4175 20.8063 27.0424 20.8562 27.2828V27.2828ZM21.4603 27.5322C21.0169 27.3611 21.7474 27.261 21.4603 27.5322V27.5322ZM22.4954 28.1034C21.9362 28.0072 22.6701 27.848 22.4954 28.1034V28.1034ZM20.5079 26.7314C19.9307 26.7274 20.9539 26.4454 20.5079 26.7314V26.7314ZM20.9608 26.9551C20.7995 27.0229 20.9478 26.8042 20.9608 26.9551V26.9551ZM23.2248 28.3544C23.5889 28.5821 25.3507 28.853 24.2476 28.4479C24.0626 28.4863 22.202 27.9265 23.2248 28.3544ZM19.6306 25.5823C19.0652 25.4149 19.5952 25.4311 19.6306 25.5823V25.5823ZM20.6842 26.1912C20.115 26.0448 20.959 26.0014 20.6842 26.1912V26.1912ZM21.5709 26.7292C20.9327 26.5818 21.9649 26.5824 21.5709 26.7292V26.7292ZM19.2013 25.1199C19.6284 25.4442 20.9243 25.1616 19.8554 24.9263C19.3693 24.6698 18.2735 24.4941 19.0205 25.081L19.2013 25.1199ZM22.1718 26.915C21.4254 26.7435 22.3499 26.615 22.1718 26.915V26.915ZM21.2692 26.2049C22.3133 26.4971 20.3909 25.5505 21.0114 26.097L21.1491 26.1588L21.2692 26.2049ZM23.0789 27.2405C22.1853 27.1053 24.0678 27.2498 23.0789 27.2405V27.2405ZM18.8209 24.5534C18.577 24.5685 18.7821 24.3709 18.8209 24.5534V24.5534ZM24.7517 28.1697C24.4291 28.4151 24.7781 27.8404 24.7517 28.1697V28.1697ZM20.509 25.5767C20.2 25.5695 20.4488 25.4031 20.509 25.5767V25.5767ZM18.9147 24.4388C18.1369 24.1912 19.4824 24.405 18.9147 24.4388V24.4388ZM17.0259 23.2302C16.4084 22.7456 16.9552 22.9604 17.0259 23.2302V23.2302ZM21.9841 26.3458C21.8801 26.2283 21.9351 26.3713 21.9841 26.3458V26.3458ZM25.0697 28.221C24.9017 28.2887 25.0602 28.0412 25.0697 28.221V28.221ZM21.711 26.0664C21.2267 25.9962 21.7667 25.835 21.711 26.0664V26.0664ZM19.412 24.6236C18.7348 24.3409 19.8346 24.579 19.412 24.6236V24.6236ZM23.3008 27.0163C22.6591 26.8905 23.9594 26.7581 23.3008 27.0163V27.0163ZM21.2783 25.657C22.0369 25.7536 20.3753 25.1455 21.1114 25.6023L21.2783 25.657ZM23.9149 27.2622C24.6236 26.8432 24.3898 28.2443 25.117 27.3807C25.834 26.8621 24.4977 28.0217 25.3811 27.4731C26.0206 27.0496 26.9646 27.6739 27.5609 27.8771C27.9896 27.8565 28.4066 28.2443 28.8466 28.0083C29.6929 27.7823 27.1911 27.6734 27.8469 27.2732C27.0726 27.4965 26.5006 27.0073 26.1195 26.516C25.2507 26.3173 24.2465 25.8778 23.8127 25.116C23.6357 24.8306 24.0679 25.1567 23.6599 24.6893C23.1367 24.2285 22.8755 23.7048 22.5241 23.1446C22.1043 22.9231 22.0549 22.2704 22.0127 23.123C22.0162 22.5848 21.5059 22.2226 21.3811 22.3728C21.3789 21.8547 21.9274 22.1146 21.5435 21.7312C21.461 21.1942 21.1889 20.6346 21.1074 20.028C20.9805 19.7359 21.0893 19.1099 20.6736 19.7714C20.5224 20.4709 20.6236 18.9123 20.8591 19.426C21.1681 18.9018 20.7477 18.9635 20.7309 19.0359C20.9321 18.5936 20.8585 17.9658 20.6781 18.2051C20.7855 17.736 20.8478 16.4791 20.518 16.7022C20.718 16.2115 20.8973 14.4574 20.0284 15.1264C19.6767 15.1314 19.067 15.2528 18.7793 15.3946C19.6824 15.8877 18.6882 15.5727 18.3202 15.4942C18.2724 15.9505 17.9083 15.7535 17.4531 15.7579C18.1803 15.8469 17.099 16.494 16.6827 16.2426C16.141 16.4986 17.1497 17.1385 16.6934 17.3365C16.7497 17.6342 15.8639 17.2287 15.9331 17.9175C15.4076 17.6981 15.8611 18.7343 16.1241 18.3838C17.0182 18.6236 16.7535 19.1695 16.776 19.6886C16.6304 19.9906 16.0567 18.978 16.6483 19.0248C16.1814 18.2741 16.132 18.7532 15.7442 19.1021C15.6543 19.1272 16.7332 19.5984 16.0561 19.831C16.6518 19.9223 16.6692 20.4387 16.7906 20.7653C17.1486 21.1346 17.0748 20.3573 17.5038 20.8015C17.2322 20.4058 16.0673 19.6868 17.0053 19.9174C17.0002 19.5195 16.8355 19.1983 17.1232 19.2061C17.4082 18.6959 16.8249 20.4648 17.4666 19.816C17.6441 19.7393 17.6886 19.3052 18.0078 19.8572C18.4713 20.3091 18.1753 20.6361 17.5211 20.2222C17.638 20.6156 18.396 20.7557 18.2533 21.3707C18.4044 21.9116 18.6158 21.7123 18.8 21.6811C18.9444 22.2064 19.0267 21.8203 19.0334 21.5698C19.6947 21.7102 19.5396 22.0974 19.7469 22.3678C20.2026 22.5714 19.0945 20.9873 19.8768 21.8915C20.6999 22.6276 20.1859 22.9347 19.447 22.8169C19.9145 22.7794 20.065 23.4429 20.6501 23.4195C21.1833 23.671 21.5447 24.6358 20.6254 24.234C20.3067 23.9491 19.1776 23.598 20.0999 24.1395C20.9507 24.5301 21.6273 24.7632 22.4483 25.2535C23.0356 25.6686 23.2894 26.1442 23.512 26.2384C23.0181 26.472 22.0241 26.052 22.7624 25.9235C22.3016 25.8405 21.7835 25.6096 22.2246 26.1777C22.5999 26.4882 23.5536 26.4553 23.725 26.4904C23.5801 26.8065 23.3312 26.8316 23.7306 26.856C23.2849 27.0914 23.8739 27.1281 23.9149 27.2622ZM23.0034 24.7132C22.732 24.4322 22.6618 23.9064 22.9551 24.3636C23.1058 24.4238 23.4368 25.2235 23.0034 24.7132ZM25.9723 26.5806C25.9773 26.7079 26.1414 26.5695 25.9723 26.5806V26.5806ZM22.5754 24.0243C22.5645 23.5997 22.673 24.352 22.5754 24.0243V24.0243ZM22.2803 23.6315C21.9386 22.9788 22.7101 23.8162 22.2803 23.6315V23.6315ZM18.704 21.1877C18.8029 21.5269 18.9046 21.1347 18.704 21.1877V21.1877ZM21.5503 22.715C21.6734 22.257 21.6948 23.099 21.5503 22.715V22.715ZM19.5396 21.3305C19.3981 21.078 19.8358 21.5677 19.5396 21.3305V21.3305ZM21.2648 21.8781C20.9417 21.1615 21.4941 21.4863 21.3367 21.9955L21.2648 21.8781ZM18.2893 19.9133C18.1449 19.678 17.906 18.988 17.983 18.7772C18.0521 19.1205 18.7198 20.2539 18.31 19.2468C17.8577 18.4027 18.8513 19.5205 18.9535 19.7315C19.0013 19.9407 18.6742 19.6742 18.8956 20.1654C18.4916 19.6062 18.6573 20.4743 18.2893 19.9133ZM17.37 19.2857C17.4076 18.7387 17.5802 19.6607 17.37 19.2857V19.2857ZM17.7836 19.427C17.9808 19.0143 18.1179 20.0024 17.7836 19.427V19.427ZM16.7883 18.6648C16.446 18.3275 16.1982 18.0171 16.8046 18.4555C17.0378 18.4644 16.2854 17.7494 16.8609 18.2284C17.4654 18.3376 17.1591 19.2107 16.7883 18.6648ZM17.3109 18.6514C17.4166 18.8434 17.5099 18.4562 17.3109 18.6514V18.6514ZM17.6329 18.7532C17.3311 18.194 17.9988 18.9881 17.6329 18.7532V18.7532ZM16.9935 18.1485C15.9983 17.2708 18.2438 18.6069 17.1559 18.3108L16.9935 18.1485ZM19.8453 19.7887C19.4143 19.5333 19.7307 17.9887 19.878 19.0448C20.2966 18.9106 19.8548 19.5907 20.1667 19.584C20.1179 20.0129 19.978 20.1672 19.8453 19.7887ZM20.9001 20.4063C20.9422 19.9407 20.9889 20.7248 20.9001 20.4063V20.4063ZM20.717 20.2266C20.7214 20.4609 20.7641 20.028 20.717 20.2266V20.2266ZM17.1884 17.8602C16.549 16.9865 19.0468 18.7437 17.5981 18.0817C17.4469 18.0422 17.2643 18.0282 17.1884 17.8602ZM19.2198 18.9264C19.1593 18.1907 19.3548 19.0481 19.2198 18.9264V18.9264ZM20.7618 19.9061C20.7709 20.1833 20.8809 19.4871 20.7618 19.9061V19.9061ZM17.2868 17.5268C17.6667 17.4462 18.8613 18.1873 17.7644 17.7383C17.6425 17.6047 17.3823 17.6655 17.2868 17.5268ZM20.5499 19.1372C20.5905 18.3849 20.7771 18.6881 20.5516 19.2451L20.5499 19.1372ZM17.5694 17.2648C17.7244 17.0399 17.1579 16.2482 17.6508 16.981C17.8639 17.1484 18.2672 17.2614 17.911 17.3321C18.4712 17.8213 17.7745 17.4646 17.5694 17.2648ZM20.3886 18.9024C20.4831 19.4043 20.4955 18.0455 20.3886 18.9024V18.9024ZM17.2457 16.4736C17.3086 16.6298 17.3643 16.4233 17.2457 16.4736V16.4736ZM17.9813 16.907C18.1705 16.5135 18.3302 17.3454 17.9813 16.907V16.907ZM20.0554 18.0493C20.0537 17.8985 20.0947 18.2691 20.0554 18.0493V18.0493ZM19.9351 17.7862C19.6474 17.0828 20.2032 18.1584 19.9351 17.7862V17.7862ZM19.7586 17.3248C19.7105 17.0343 19.9227 17.6899 19.7586 17.3248V17.3248ZM20.0463 16.8619C19.8486 16.5174 20.296 15.3428 20.346 16.0712C20.1374 16.6388 20.2858 16.956 20.4307 16.1948C20.6994 15.5961 20.3729 17.3772 20.0463 16.8619ZM20.3419 15.1153C20.3611 15.2415 20.428 15.0106 20.3419 15.1153V15.1153ZM19.8481 24.7488C19.7312 24.6475 19.8632 24.8128 19.8481 24.7488V24.7488ZM20.8652 25.258C21.431 25.4021 21.4283 25.1711 20.9168 25.1021C20.642 24.849 19.7738 24.5802 20.551 25.0709C20.6022 25.2001 20.7647 25.1967 20.8652 25.258ZM18.8568 23.9369C19.1681 24.1674 20.0307 24.589 19.3007 24.0249C19.5468 23.7416 18.8298 23.5909 19.0676 23.4012C18.4623 23.0344 18.5898 23.0672 19.0142 23.079C18.287 22.7567 19.1192 22.7812 19.0799 22.616C18.7995 22.5614 17.6868 22.1262 18.3415 22.6516C17.6761 22.316 18.1829 22.7768 17.9818 22.7284C17.3012 22.5447 18.5877 23.2415 17.8739 23.0684C18.264 23.3744 18.9242 23.853 18.0385 23.3922C17.9223 23.5585 18.6726 23.8107 18.8568 23.9369ZM19.9205 24.5423C19.286 24.0376 21.2136 24.9547 19.9205 24.5423V24.5423ZM25.3658 27.8086C25.1893 28.0255 25.3827 27.5543 25.3658 27.8086V27.8086ZM25.9255 28.0417C26.2239 27.7558 25.9379 28.498 26.42 27.9717C26.425 27.5949 26.4054 27.3724 25.866 27.8303C25.717 27.9121 25.6508 28.2586 25.9255 28.0417ZM17.0412 22.5171C16.3988 22.1619 16.9495 22.1604 17.0412 22.5171V22.5171ZM17.6384 22.9048C16.8466 22.5749 17.4164 22.5404 17.6384 22.9048V22.9048ZM21.0388 24.9352C21.371 25.2274 22.5634 25.1495 21.4418 24.9714C21.276 24.7282 20.3876 24.7867 21.0388 24.9352ZM25.7125 27.7937C25.2175 27.9829 26.2233 27.3691 25.7125 27.7937V27.7937ZM26.7752 28.5164C26.555 28.576 26.7785 28.3801 26.7752 28.5164V28.5164ZM26.7769 28.3256C26.229 28.3606 27.3427 27.7325 26.7769 28.3256V28.3256ZM15.571 21.2984C15.0889 20.6173 15.2715 20.3112 14.8063 19.7548C14.7179 19.3291 14.0083 18.3643 14.4393 19.3864C14.8338 19.9846 14.9506 20.9104 15.571 21.2984ZM26.5993 28.1369C26.1723 27.847 27.6407 27.4708 26.5993 28.1369V28.1369ZM27.394 28.4451C27.064 28.3527 27.9154 28.0021 27.394 28.4451V28.4451ZM16.864 21.764C16.4786 21.7357 17.0131 21.5442 16.864 21.764V21.764ZM27.2281 28.2348C27.7327 27.9127 27.1118 27.9621 27.1366 28.2642L27.2281 28.2348ZM20.3791 23.9603C20.1122 23.9787 20.3617 23.7422 20.3791 23.9603V23.9603ZM20.8022 24.2013C20.5954 24.2436 20.6674 23.9319 20.8022 24.2013V24.2013ZM28.0379 28.4525C28.6847 27.9905 27.6463 28.3639 27.9025 28.5404L28.0379 28.4525ZM27.7901 28.3339C27.2343 28.5275 28.3172 27.897 27.7901 28.3339V28.3339ZM29.0555 29.1679C28.6257 29.0923 29.4091 28.9337 29.0555 29.1679V29.1679ZM17.1884 21.6055C17.6621 21.7106 19.0826 22.7611 18.2448 21.6784C17.8155 21.5526 18.0729 20.5137 17.6352 20.6974C17.9291 21.1837 17.8766 21.39 17.2596 21.0841C16.4848 20.709 16.8242 21.2694 16.976 21.4241C16.7691 21.4709 17.249 21.6016 17.1883 21.6054L17.1884 21.6055ZM15.0288 19.9168C15.1136 19.5689 14.2471 18.0048 14.6197 19.1327C14.7539 19.3692 14.74 19.8171 15.0288 19.9168ZM18.9927 22.3366C18.7483 22.1347 18.9809 22.3077 18.9927 22.3366V22.3366ZM19.5934 22.4753C18.9293 22.3255 19.5934 22.1068 19.5934 22.4753V22.4753ZM24.8028 25.7265C24.41 25.7209 24.7033 25.4749 24.8028 25.7265V25.7265ZM25.0529 25.9072C24.9083 25.9345 25.0156 25.7665 25.0529 25.9072V25.9072ZM27.1174 27.1954C26.8696 27.1766 27.3158 27.0502 27.1174 27.1954V27.1954ZM16.1072 20.1894C15.4985 20.0341 16.6752 19.9718 16.1072 20.1894V20.1894ZM24.3441 25.3274C23.9817 25.4182 24.3375 24.9635 24.3441 25.3274V25.3274ZM15.8829 19.6713C15.5452 19.5913 16.2476 19.5496 15.8829 19.6713V19.6713ZM16.9416 20.1793C16.8298 20.225 16.9354 20.0597 16.9416 20.1793V20.1793ZM29.858 28.0222C30.3273 27.9282 31.3967 28.2588 31.5691 27.8993C30.9994 27.8854 29.5984 27.5009 29.5321 27.9905L29.6569 28.0101L29.8581 28.0222H29.858ZM17.2782 20.2634C16.9877 20.2495 17.2868 19.8944 17.2782 20.2634V20.2634ZM14.4945 18.3509C14.0134 18.2445 14.3681 17.648 14.4945 18.3509V18.3509ZM15.1581 18.5161C14.5505 18.313 15.1666 18.2902 15.1581 18.5161V18.5161ZM15.5374 18.7009C15.4279 18.6129 15.452 18.8115 15.5374 18.7009V18.7009ZM17.9251 20.2172C17.6588 20.1415 18.0376 20.1147 17.9251 20.2172V20.2172ZM15.2851 18.2847C14.5158 18.2051 15.2206 17.7539 15.2851 18.2847V18.2847ZM13.9234 17.4099C13.7907 17.5023 13.9043 17.1651 13.9234 17.4099V17.4099ZM14.1262 17.2587C13.952 17.2953 14.0932 16.9681 14.1262 17.2587V17.2587ZM15.2447 17.9196C15.7179 17.736 14.3831 17.539 15.148 17.8852L15.2447 17.9196ZM30.2173 27.0774C29.8329 26.9923 30.5201 26.8026 30.2173 27.0774V27.0774ZM32.0262 28.0055C31.7204 28.0523 32.1476 27.6506 32.0262 28.0055V28.0055ZM15.359 17.3393C14.9837 17.4077 15.4091 16.9955 15.359 17.3393V17.3393ZM13.7672 16.2833C13.6818 15.7981 13.6935 14.9461 14.5112 15.2338C13.4198 15.4486 15.2671 16.5775 15.0338 15.6861C15.4929 15.7085 15.9319 15.4175 15.6907 15.8586C16.5955 15.7601 17.2221 14.9834 18.0959 15.0925C18.7763 15.003 19.5204 14.9356 20.2538 14.664C20.8567 14.6211 21.4371 13.9784 21.1069 13.5973C20.2847 13.5284 19.4237 13.6301 18.5151 13.8094C17.5081 14.0163 16.5933 14.4102 15.5772 14.5795C14.5864 14.7113 15.7762 14.9422 15.4923 14.9939C14.9758 15.1714 16.1088 15.2911 15.4254 15.4786C15.0035 15.3991 14.564 15.2555 14.7444 14.8148C13.7958 14.9372 12.9619 15.3267 13.7116 16.2826L13.7673 16.2831L13.7672 16.2833ZM16.0538 15.1303C16.2758 14.3191 17.2451 15.7981 16.4179 15.2382C16.3195 15.1647 16.1565 15.1052 16.0538 15.1303ZM16.097 14.7368C16.2673 14.8699 16.4179 14.5004 16.097 14.7368V14.7368ZM16.5044 14.7436C16.5338 14.3702 17.4379 14.9411 16.6534 14.8777L16.5044 14.7436ZM17.0619 14.5216C17.121 14.7307 17.2659 14.2855 17.0619 14.5216V14.5216ZM17.2047 14.427C17.5441 14.0236 19.1248 14.1693 17.9677 14.3874C17.6575 14.1559 17.4199 14.5237 17.2047 14.427ZM19.2681 14.112C19.217 13.0096 20.2936 14.5032 19.2681 14.112V14.112ZM19.8537 14.1086C20.0677 13.5534 20.6847 13.8856 19.9531 13.9968C19.9688 14.0564 19.9312 14.284 19.8537 14.1086ZM15.1283 17.0544C14.4494 16.7179 15.7676 16.6665 15.1283 17.0544V17.0544ZM15.6014 17.1841C15.1136 17.0884 15.8257 16.9482 15.6014 17.1841V17.1841ZM14.2078 16.2053C13.7751 16.0997 14.573 15.9271 14.2078 16.2053V16.2053ZM33.0938 27.9043C32.8145 28.0495 33.1044 27.5815 33.0938 27.9043V27.9043ZM31.1747 26.6072C30.9281 26.6395 31.2292 26.2362 31.1747 26.6072V26.6072ZM33.6214 28.0295C34.1323 28.0312 35.1695 27.8719 34.058 27.8725C33.8833 27.8993 33.0415 27.8938 33.6214 28.0295ZM16.0173 16.9564C16.4309 16.9286 16.6641 16.505 15.9369 16.529C14.8102 16.4139 16.9309 16.9114 15.7925 16.7689C15.6397 16.8691 16.0082 16.9842 16.0173 16.9564ZM16.3814 17.139C16.2532 17.2785 16.3381 16.8763 16.3814 17.139V17.139ZM16.8135 15.9982C16.5651 15.9392 16.9928 15.7778 16.8135 15.9982V15.9982ZM15.4378 13.722C16.1763 13.4738 17.1855 13.1945 17.534 13.8445C17.1793 13.4222 17.3907 13.0059 17.7256 13.6241C18.1993 14.249 18.4364 13.3398 18.1284 13.13C18.4798 13.5617 18.8787 13.766 18.3633 13.1574C18.9236 12.4901 17.2422 13.2447 16.8602 13.2368C16.6764 13.3185 14.9618 13.6697 15.4378 13.722ZM15.8705 12.9019C16.2915 12.5876 17.3266 13.0894 16.6623 12.5891C16.5972 12.5324 15.2081 12.9686 15.8705 12.9019ZM17.4053 12.9647C17.8975 12.977 17.1929 12.3092 17.7795 12.6119C17.6835 12.3004 17.0962 12.2419 16.8091 12.1173C16.6467 12.4022 17.1394 12.9686 17.4053 12.9647ZM16.1397 11.5853C15.8408 11.7016 16.31 11.3566 16.1397 11.5853V11.5853ZM16.767 11.7337C17.5609 11.6298 16.5645 11.3955 16.6067 11.7255L16.767 11.7337ZM15.5957 10.8268C15.0365 10.104 16.6471 10.9482 16.0789 10.1913C15.6008 9.81471 15.1417 10.616 15.5957 10.8268ZM22.7689 14.6524C23.0253 14.2027 21.7108 14.0458 22.5964 14.4931C22.6779 14.5199 22.6595 14.6834 22.7689 14.6524ZM17.564 31.4006C17.5073 31.6224 17.4721 31.9945 17.459 32.5168C17.459 32.6194 17.4123 32.6708 17.3187 32.6708C17.2251 32.6708 17.16 32.626 17.1231 32.5367C17.0229 32.2952 16.9281 32.1268 16.8375 32.0306C16.7308 31.9183 16.5888 31.8504 16.4117 31.8273C16.2213 31.7975 15.7471 31.7826 14.989 31.7826C14.8154 31.7826 14.7017 31.8009 14.6484 31.8374C14.615 31.8604 14.5983 31.9101 14.5983 31.9862V34.2335C14.5983 34.3095 14.6467 34.3458 14.7434 34.3426C15.0408 34.3392 15.4716 34.3192 16.0359 34.2831C16.1462 34.2696 16.2206 34.2342 16.259 34.1762C16.2976 34.1183 16.3352 33.9689 16.3717 33.7273C16.3949 33.595 16.4736 33.5437 16.6072 33.5737C16.7206 33.5968 16.7694 33.6481 16.7527 33.7273C16.659 34.1773 16.6287 34.7627 16.6622 35.4837C16.6657 35.5694 16.6106 35.6159 16.4969 35.6225C16.4032 35.6325 16.3448 35.5828 16.3216 35.4736C16.235 35.0603 16.0735 34.8394 15.8383 34.8112C15.6028 34.7833 15.2193 34.7691 14.6884 34.7691C14.6283 34.7691 14.5983 34.7905 14.5983 34.8336V37.066C14.5983 37.2314 14.6599 37.344 14.7834 37.4033C14.8805 37.4529 15.0892 37.4977 15.4096 37.5373C15.5735 37.5538 15.6451 37.6251 15.6253 37.7506C15.6051 37.8597 15.4584 37.9028 15.1842 37.8797C14.3927 37.8167 13.7396 37.8201 13.2254 37.8898C13.0817 37.9093 13.0101 37.8515 13.0101 37.7161C13.0101 37.6299 13.0817 37.5804 13.2254 37.5672C13.5528 37.5307 13.7163 37.2462 13.7163 36.714V32.4671C13.7163 32.2491 13.677 32.0813 13.5987 31.9638C13.52 31.8463 13.3739 31.7395 13.1604 31.6437C13.0267 31.5842 12.9767 31.5032 13.01 31.4006C13.0267 31.3379 13.0535 31.303 13.09 31.2965C13.1234 31.2865 13.2121 31.2931 13.3555 31.3165C13.566 31.3495 14.0621 31.3661 14.8436 31.3661C15.7656 31.3661 16.562 31.3461 17.2335 31.3065C17.4572 31.2931 17.5692 31.3114 17.5692 31.361C17.5692 31.3744 17.5675 31.3874 17.564 31.4006ZM20.813 37.6981C20.813 37.8305 20.7378 37.8883 20.5876 37.8717C20.127 37.8287 19.5557 37.8351 18.8744 37.8914C18.7373 37.9048 18.6532 37.9014 18.6212 37.8818C18.5894 37.8618 18.5738 37.8073 18.5738 37.7177C18.5738 37.6386 18.6646 37.5717 18.8466 37.5169C19.0289 37.4625 19.1196 37.2996 19.1196 37.0285V32.5387C19.1196 32.2707 19.0804 32.074 19.0021 31.9482C18.9234 31.8225 18.7857 31.725 18.5887 31.6557C18.4851 31.6191 18.4332 31.5679 18.4332 31.5017C18.4332 31.4025 18.5084 31.3281 18.6587 31.2785C18.8859 31.2058 19.1214 31.0935 19.3653 30.9412C19.5657 30.8221 19.6928 30.7628 19.746 30.7628C19.8694 30.7628 19.9315 30.8468 19.9315 31.0156C19.9315 31.0025 19.9248 31.1679 19.9112 31.5117C19.9015 31.839 19.8981 32.1614 19.9015 32.4792L19.9213 36.9092C19.9213 37.111 19.9715 37.2574 20.0717 37.3484C20.1719 37.4393 20.3441 37.4996 20.5876 37.5293C20.7378 37.5457 20.813 37.602 20.813 37.6981V37.6981ZM25.3444 37.4056C25.3444 37.4752 25.2167 37.58 24.9613 37.7204C24.7057 37.8611 24.501 37.9314 24.3476 37.9314C24.2171 37.9314 24.102 37.8687 24.0018 37.7429C23.9016 37.6172 23.8313 37.5545 23.7913 37.5545C23.7613 37.5545 23.6027 37.6223 23.3152 37.7577C23.0282 37.8934 22.7392 37.9613 22.4486 37.9613C22.1748 37.9613 21.9459 37.8818 21.7622 37.7233C21.5618 37.5479 21.4616 37.3098 21.4616 37.0087C21.4616 36.4365 22.123 36.0266 23.4457 35.7785C23.6726 35.7355 23.7881 35.6445 23.7912 35.5056L23.8014 35.1881C23.8215 34.6458 23.5794 34.3746 23.0749 34.3746C22.9312 34.3746 22.7952 34.5018 22.6664 34.7564C22.5381 35.0113 22.3533 35.1484 22.1128 35.1684C21.839 35.1946 21.702 35.0806 21.702 34.826C21.702 34.6671 21.9058 34.4822 22.3133 34.2703C22.7409 34.0488 23.1518 33.9379 23.5459 33.9379C24.2238 33.9379 24.5595 34.2572 24.5529 34.8955L24.5327 36.9392C24.5296 37.1542 24.6214 37.2616 24.8083 37.2616C24.8451 37.2616 24.9154 37.2534 25.0187 37.2369C25.1225 37.2203 25.1826 37.212 25.1994 37.212C25.2961 37.212 25.3444 37.2768 25.3444 37.4056ZM23.8014 36.2747C23.8049 36.1919 23.7854 36.1371 23.7436 36.111C23.7018 36.0845 23.6362 36.0792 23.5459 36.0958C22.7409 36.2381 22.3383 36.4978 22.3383 36.8748C22.3383 37.2551 22.5471 37.4452 22.9646 37.4452C23.1316 37.4452 23.3039 37.4139 23.4805 37.3512C23.6879 37.2782 23.7913 37.1907 23.7913 37.088L23.8014 36.2747ZM29.0693 36.8349C29.0693 37.1855 28.9328 37.4643 28.6609 37.6709C28.3887 37.8777 28.0172 37.981 27.5461 37.981C27.2322 37.981 26.918 37.948 26.6042 37.8818C26.3335 37.8222 26.1766 37.7678 26.1332 37.7181C26.1064 37.6716 26.0931 37.4453 26.0931 37.0384C26.0931 36.8631 26.1332 36.7721 26.2134 36.7656C26.2935 36.7556 26.3621 36.7987 26.4188 36.8944C26.6692 37.3278 27.0735 37.5446 27.6313 37.5446C28.102 37.5446 28.3376 37.3823 28.3376 37.0581C28.3376 36.9161 28.2843 36.7969 28.1772 36.7011C28.0602 36.5919 27.8334 36.4645 27.496 36.319C27.0082 36.1042 26.6825 35.9157 26.5189 35.7534C26.3418 35.5815 26.2534 35.3501 26.2534 35.0589C26.2534 34.7016 26.392 34.424 26.6693 34.2256C26.9264 34.0336 27.2705 33.9379 27.7012 33.9379C27.9719 33.9379 28.219 33.9591 28.443 34.0023C28.6835 34.0453 28.8087 34.0981 28.8187 34.1611C28.8452 34.346 28.9005 34.6141 28.9841 34.9649C28.9941 35.0076 28.9471 35.0424 28.8438 35.0688C28.7335 35.092 28.6601 35.0737 28.6232 35.0144C28.3595 34.5875 28.0255 34.3743 27.6212 34.3743C27.1636 34.3743 26.9348 34.5198 26.9348 34.8108C26.9348 34.973 26.9967 35.1019 27.1202 35.1977C27.2305 35.2804 27.4893 35.4096 27.8968 35.5849C28.3243 35.7668 28.6149 35.9305 28.7687 36.0759C28.9691 36.2643 29.0693 36.5176 29.0693 36.8349ZM34.9635 37.7031C34.9635 37.8188 34.8849 37.8801 34.728 37.8866C34.4941 37.89 34.1883 37.9065 33.8112 37.9362C33.624 37.9727 33.4904 37.9497 33.4104 37.867C32.8825 37.3048 32.4348 36.716 32.0673 36.1007C32.0374 36.0479 31.9991 36.0215 31.9522 36.0215C31.8955 36.0215 31.7971 36.0711 31.6568 36.1704C31.4995 36.2561 31.4213 36.3787 31.4213 36.5371C31.4213 36.6498 31.4243 36.8117 31.4313 37.0237C31.438 37.2352 31.4912 37.3739 31.5914 37.4401C31.6616 37.4867 31.8239 37.5229 32.0774 37.5494C32.2344 37.5693 32.313 37.6272 32.313 37.723C32.313 37.7992 32.3005 37.8464 32.2754 37.8643C32.2505 37.8825 32.1843 37.8866 32.0774 37.8767C31.7434 37.8471 31.1791 37.8636 30.3842 37.9263C30.1838 37.9428 30.0751 37.9179 30.0585 37.8518C30.0518 37.8289 30.0483 37.7957 30.0483 37.7526C30.0483 37.6503 30.1503 37.5724 30.3542 37.5198C30.5379 37.4732 30.6297 37.2599 30.6297 36.8796V32.5437C30.6297 32.2726 30.603 32.0841 30.5493 31.9783C30.4759 31.8426 30.3221 31.7367 30.0884 31.6607C29.9784 31.6245 29.9231 31.5732 29.9231 31.507C29.9231 31.4108 30.0017 31.3365 30.1586 31.2838C30.4111 31.2002 30.6518 31.0851 30.8749 30.9414C31.0588 30.8225 31.1725 30.7628 31.2156 30.7628C31.3528 30.7628 31.4213 30.8486 31.4213 31.0209C31.4213 30.9975 31.4195 31.1615 31.416 31.5119C31.4124 31.8361 31.4108 32.1602 31.4112 32.4844L31.4213 35.5898C31.4213 35.6759 31.4445 35.7186 31.4912 35.7186C31.5413 35.7186 31.6182 35.6759 31.7219 35.5898C31.9991 35.3747 32.3398 35.0937 32.7437 34.7464C32.8241 34.6638 32.8641 34.5976 32.8641 34.548C32.8641 34.4588 32.7288 34.3957 32.4584 34.3596C32.3416 34.3461 32.2862 34.2817 32.2927 34.1659C32.3029 34.0502 32.3614 34.0006 32.4681 34.0171C32.7089 34.0503 33.0596 34.0685 33.5203 34.0719C33.8411 34.0749 34.1601 34.0767 34.4774 34.0767C34.5807 34.0801 34.6326 34.1411 34.6326 34.2604C34.6326 34.3727 34.5508 34.434 34.3873 34.444C34.1298 34.4536 33.8877 34.5115 33.6609 34.6176C33.3435 34.7595 33.0043 35.0093 32.6435 35.3666C32.6171 35.3865 32.6035 35.4113 32.6035 35.441C32.6035 35.4872 32.6602 35.5981 32.774 35.7734C33.1915 36.4018 33.5857 36.8762 33.9562 37.1972C34.1935 37.3989 34.4155 37.4997 34.6225 37.4997C34.7763 37.4997 34.8716 37.5104 34.9081 37.532C34.945 37.5536 34.9635 37.6107 34.9635 37.7031Z" fill="black"/>
</g>
<defs>
<clipPath id="clip0_1_3115">
<rect width="22" height="28" fill="white" transform="translate(13 10)"/>
</clipPath>
</defs>
</svg>
