<svg width="48" height="48" viewBox="0 0 48 48" fill="none" xmlns="http://www.w3.org/2000/svg">
<rect width="48" height="48" fill="#EFE6FC"/>
<g clip-path="url(#clip0_1_3111)">
<path d="M24.0011 37.9816C31.5439 37.9816 37.6585 31.7219 37.6585 24.0001C37.6585 16.2783 31.5439 10.0186 24.0011 10.0186C16.4584 10.0186 10.3438 16.2783 10.3438 24.0001C10.3438 31.7219 16.4584 37.9816 24.0011 37.9816Z" fill="white"/>
<path d="M24.0002 10.1914C16.2876 10.1914 10.0332 16.4286 10.0332 24.1237C10.0332 30.2803 14.0353 35.5025 19.5842 37.3444C20.2818 37.4731 20.5387 37.0423 20.5387 36.6741C20.5387 36.3418 20.5252 35.2441 20.5196 34.0803C16.6342 34.9229 15.8143 32.4366 15.8143 32.4366C15.1794 30.8264 14.263 30.3978 14.263 30.3978C12.9955 29.5328 14.3583 29.5507 14.3583 29.5507C15.7604 29.6492 16.4996 30.9864 16.4996 30.9864C17.7458 33.1169 19.767 32.5003 20.5634 32.1445C20.689 31.2437 21.0502 30.6294 21.4506 30.2814C18.3481 29.929 15.0874 28.7339 15.0874 23.3953C15.0874 21.8746 15.6326 20.6314 16.5265 19.6557C16.3818 19.3054 15.904 17.8888 16.6622 15.9698C16.6622 15.9698 17.8355 15.5949 20.5039 17.3976C21.6177 17.0887 22.8123 16.9343 24.0002 16.9287C25.1869 16.9343 26.3826 17.0887 27.4986 17.3976C30.1648 15.5949 31.3358 15.9698 31.3358 15.9698C32.0963 17.8888 31.6174 19.3066 31.4727 19.6568C32.3678 20.6325 32.9095 21.8757 32.9095 23.3964C32.9095 28.7473 29.6421 29.9267 26.5318 30.2714C27.0331 30.7033 27.4796 31.5515 27.4796 32.8517C27.4796 34.7159 27.4639 36.2165 27.4639 36.6752C27.4639 37.0456 27.7151 37.4809 28.4229 37.3433C33.9695 35.4992 37.966 30.2781 37.966 24.1237C37.966 16.4286 31.7127 10.1914 24.0002 10.1914Z" fill="#5C6BC0"/>
</g>
<defs>
<clipPath id="clip0_1_3111">
<rect width="27.9328" height="28" fill="white" transform="translate(10.0332 10)"/>
</clipPath>
</defs>
</svg>
