<svg width="48" height="48" viewBox="0 0 48 48" fill="none" xmlns="http://www.w3.org/2000/svg">
<rect width="48" height="48" fill="#EFE6FC"/>
<path d="M36.2115 10H11.7885C10.8004 10 10 10.8004 10 11.7885V36.2115C10 37.197 10.8004 38 11.7885 38H36.2115C37.197 38 38 37.1996 38 36.2115V11.7858C37.9974 10.8004 37.197 10 36.2115 10ZM22.7121 25.7806C22.7121 26.5575 22.6391 27.2223 22.4905 27.7698C22.3419 28.3173 22.1177 28.7553 21.8205 29.0994C21.5207 29.4384 21.1479 29.6886 20.702 29.8451C20.2562 30.0041 19.7374 30.0823 19.1456 30.0823C18.6242 30.0823 18.1549 29.9989 17.7326 29.8372C16.9061 29.527 16.2596 28.8622 15.9754 28.0279C15.8086 27.5613 15.7277 27.0711 15.7356 26.5758V26.2264H17.4119C17.4119 27.7881 17.9907 28.5702 19.1482 28.5702C19.4454 28.5702 19.7061 28.5363 19.9408 28.4659C20.1728 28.3929 20.3683 28.2626 20.53 28.0644C20.6916 27.8689 20.8115 27.5978 20.895 27.2458C20.9784 26.8939 21.0201 26.4376 21.0201 25.8719V17.133H22.7173L22.7121 25.7806ZM32.0741 28.3173C31.8968 28.6745 31.6466 28.9899 31.3389 29.2428C30.9948 29.5192 30.5985 29.7304 30.1762 29.8607C29.7199 30.0067 29.2089 30.0797 28.6432 30.0797C26.1378 30.0797 24.816 29.0916 24.6804 27.1102H26.3281C26.3359 28.2287 27.1024 28.7892 28.625 28.7892C28.9639 28.7892 29.2663 28.7527 29.5244 28.6771C29.7851 28.6041 30.0015 28.4998 30.1736 28.3695C30.5099 28.127 30.708 27.7385 30.7054 27.324C30.7132 27.1415 30.6767 26.9616 30.6037 26.7948C30.5359 26.6592 30.403 26.5419 30.2074 26.4376C29.9467 26.3099 29.6756 26.2082 29.394 26.1352C28.943 26.0048 28.4894 25.8797 28.0331 25.7624C27.4883 25.6268 27.0164 25.4912 26.6227 25.3557C26.2734 25.2462 25.9449 25.0819 25.6477 24.8656C25.4 24.6804 25.2045 24.4354 25.0819 24.1538C24.9594 23.8696 24.8994 23.5125 24.8994 23.0823C24.8994 22.7043 24.9803 22.3523 25.1393 22.0264C25.3009 21.7032 25.5277 21.4216 25.8302 21.1818C26.1274 20.9445 26.4898 20.7594 26.9121 20.6238C27.371 20.4831 27.8507 20.4153 28.3304 20.4205C30.7523 20.4205 31.9855 21.2808 32.022 23.0041H30.4004C30.343 22.1438 29.6939 21.711 28.4529 21.711C28.1765 21.711 27.9237 21.7397 27.6864 21.7944C27.4492 21.8492 27.2484 21.9274 27.0737 22.0317C26.8991 22.1333 26.7661 22.2611 26.667 22.4123C26.5706 22.5687 26.5184 22.7512 26.5236 22.9363C26.5236 23.1162 26.5471 23.2648 26.5914 23.3795C26.6358 23.4968 26.7426 23.6037 26.9147 23.7028C27.0842 23.8019 27.3371 23.9009 27.6708 23.9974C28.0045 24.0939 28.4607 24.2138 29.0395 24.3546C29.5974 24.4901 30.0849 24.6283 30.4968 24.7743C30.9061 24.9203 31.2477 25.095 31.524 25.3009C31.7978 25.5043 31.9985 25.7572 32.1315 26.0518C32.2618 26.3464 32.3296 26.7166 32.3296 27.1598C32.3348 27.5795 32.2462 27.9628 32.0741 28.3173Z" fill="#030104"/>
</svg>
