<svg width="48" height="48" viewBox="0 0 48 48" fill="none" xmlns="http://www.w3.org/2000/svg">
<rect width="48" height="48" fill="#EFE6FC"/>
<g clip-path="url(#clip0_1_3102)">
<path d="M23.5002 36.8541C23.1545 36.8542 22.8149 36.7633 22.5155 36.5905L19.382 34.7355C18.9144 34.4738 19.1423 34.3814 19.2969 34.3274C19.7943 34.1737 20.2705 33.9585 20.7145 33.6868C20.7516 33.6696 20.7926 33.6622 20.8334 33.6652C20.8742 33.6683 20.9136 33.6817 20.9478 33.7042L23.3556 35.1346C23.4004 35.1583 23.4504 35.1707 23.5011 35.1707C23.5518 35.1707 23.6018 35.1583 23.6466 35.1346L33.036 29.7151C33.0799 29.6888 33.1162 29.6515 33.1414 29.6069C33.1666 29.5623 33.1798 29.5119 33.1796 29.4607V18.6199C33.1797 18.5679 33.1663 18.5167 33.1408 18.4713C33.1153 18.426 33.0786 18.3879 33.0341 18.3609L23.6448 12.946C23.6005 12.9211 23.5505 12.908 23.4997 12.908C23.4489 12.908 23.3989 12.9211 23.3547 12.946L13.9708 18.3627C13.926 18.3892 13.8889 18.4268 13.8629 18.4718C13.8369 18.5169 13.823 18.5679 13.8225 18.6199V29.4561C13.8227 29.5072 13.8364 29.5573 13.8623 29.6014C13.8882 29.6455 13.9253 29.6819 13.9699 29.7068L16.5451 31.193C17.9407 31.8904 18.7954 31.0686 18.7954 30.2431V19.5442C18.7954 19.5081 18.8025 19.4724 18.8163 19.4391C18.8301 19.4058 18.8503 19.3755 18.8758 19.3501C18.9013 19.3246 18.9316 19.3043 18.9649 19.2905C18.9982 19.2767 19.0339 19.2696 19.07 19.2696H20.2597C20.3325 19.2696 20.4023 19.2986 20.4538 19.3501C20.5053 19.4015 20.5342 19.4714 20.5342 19.5442V30.244C20.5342 32.1063 19.5202 33.1725 17.754 33.1725C16.992 33.1858 16.242 32.982 15.5915 32.585L13.1234 31.1692C12.8237 30.9948 12.5751 30.7447 12.4023 30.4441C12.2296 30.1435 12.1386 29.8028 12.1387 29.4561V18.6199C12.1378 18.2726 12.2283 17.9312 12.4012 17.63C12.574 17.3288 12.8231 17.0784 13.1234 16.904L22.5136 11.4827C22.8161 11.3172 23.1554 11.2305 23.5002 11.2305C23.845 11.2305 24.1842 11.3172 24.4867 11.4827L33.8761 16.904C34.1757 17.0781 34.4243 17.3278 34.5973 17.6281C34.7702 17.9284 34.8614 18.2688 34.8617 18.6153V29.4561C34.8612 29.8028 34.7699 30.1434 34.597 30.4439C34.4241 30.7445 34.1755 30.9945 33.8761 31.1692L24.4867 36.5905C24.1867 36.7636 23.8465 36.8545 23.5002 36.8541Z" fill="#00D486"/>
<path d="M21.7188 25.8292C21.7188 25.7564 21.7477 25.6865 21.7992 25.635C21.8506 25.5836 21.9205 25.5546 21.9933 25.5546H23.2077C23.2726 25.5548 23.3353 25.578 23.3847 25.6201C23.4341 25.6621 23.4671 25.7203 23.4777 25.7843C23.6607 27.0207 24.2098 27.6439 26.6926 27.6439C28.6702 27.6439 29.513 27.1964 29.513 26.1467C29.513 25.5418 29.2742 25.0925 26.2002 24.7914C23.6305 24.537 22.0418 23.9678 22.0418 21.9142C22.0418 20.0198 23.6387 18.8896 26.3155 18.8896C29.3236 18.8896 30.8125 19.9338 31.001 22.1741C31.0039 22.2115 30.9991 22.2491 30.9869 22.2846C30.9747 22.32 30.9553 22.3526 30.93 22.3803C30.9047 22.408 30.874 22.4302 30.8398 22.4456C30.8056 22.461 30.7686 22.4692 30.7311 22.4697H29.5084C29.4471 22.4688 29.3878 22.4475 29.3401 22.409C29.2923 22.3705 29.2588 22.3171 29.2449 22.2574C28.953 20.957 28.2382 20.5415 26.3164 20.5415C24.1567 20.5415 23.9059 21.2937 23.9059 21.8575C23.9059 22.5402 24.2024 22.7397 27.1181 23.1249C30.0035 23.5065 31.3744 24.0465 31.3744 26.0744C31.3744 28.1207 29.6686 29.2921 26.6935 29.2921C22.5799 29.2976 21.7188 27.4115 21.7188 25.8292Z" fill="#00D486"/>
</g>
<defs>
<clipPath id="clip0_1_3102">
<rect width="22.7248" height="28" fill="white" transform="translate(12.1367 10)"/>
</clipPath>
</defs>
</svg>
