<svg width="48" height="48" viewBox="0 0 48 48" fill="none" xmlns="http://www.w3.org/2000/svg">
<rect width="48" height="48" fill="#EFE6FC"/>
<g clip-path="url(#clip0_1_3370)">
<path d="M23.8799 10.0078C16.7896 10.0078 17.2323 13.0949 17.2323 13.0949L17.2401 16.2933H24.0063V17.2536H14.5527C14.5527 17.2536 10.0156 16.7369 10.0156 23.9197C10.0156 31.1028 13.9757 30.848 13.9757 30.848H16.3391V27.5148C16.3391 27.5148 16.2117 23.5388 20.236 23.5388H26.9468C26.9468 23.5388 30.7172 23.6 30.7172 19.8803V13.7299C30.7172 13.7299 31.2898 10.0078 23.8799 10.0078ZM20.149 12.1587C20.3089 12.1585 20.4673 12.19 20.615 12.2514C20.7628 12.3128 20.897 12.4028 21.0101 12.5163C21.1231 12.6298 21.2128 12.7646 21.2739 12.9129C21.335 13.0613 21.3664 13.2202 21.3663 13.3808C21.3664 13.5413 21.335 13.7003 21.2739 13.8486C21.2128 13.997 21.1231 14.1317 21.0101 14.2453C20.897 14.3588 20.7628 14.4488 20.615 14.5102C20.4673 14.5715 20.3089 14.603 20.149 14.6029C19.9891 14.603 19.8308 14.5715 19.683 14.5102C19.5353 14.4488 19.4011 14.3588 19.288 14.2453C19.1749 14.1317 19.0853 13.997 19.0242 13.8486C18.963 13.7003 18.9317 13.5413 18.9318 13.3808C18.9317 13.2202 18.963 13.0613 19.0242 12.9129C19.0853 12.7646 19.1749 12.6298 19.288 12.5163C19.4011 12.4028 19.5353 12.3128 19.683 12.2514C19.8308 12.19 19.9891 12.1585 20.149 12.1587Z" fill="url(#paint0_linear_1_3370)"/>
<path d="M24.082 37.9039C31.1723 37.9039 30.7296 34.8167 30.7296 34.8167L30.7218 31.6185H23.9555V30.6582H33.4091C33.4091 30.6582 37.9462 31.1748 37.9462 23.9918C37.9462 16.8089 33.9861 17.0636 33.9861 17.0636H31.6227V20.3967C31.6227 20.3967 31.7501 24.3727 27.7258 24.3727H21.015C21.015 24.3727 17.2446 24.3116 17.2446 28.0314V34.1818C17.2446 34.1818 16.6721 37.9039 24.0819 37.9039H24.082ZM27.8129 35.7532C27.653 35.7534 27.4946 35.7219 27.3469 35.6605C27.1991 35.5991 27.0649 35.5091 26.9518 35.3956C26.8388 35.2821 26.7491 35.1473 26.688 34.999C26.6269 34.8506 26.5955 34.6916 26.5956 34.5311C26.5955 34.3706 26.6269 34.2116 26.688 34.0632C26.7491 33.9149 26.8387 33.7801 26.9518 33.6666C27.0649 33.553 27.1991 33.463 27.3469 33.4016C27.4946 33.3403 27.653 33.3087 27.8129 33.3089C27.9728 33.3087 28.1311 33.3403 28.2789 33.4016C28.4266 33.463 28.5608 33.553 28.6739 33.6665C28.787 33.78 28.8766 33.9148 28.9377 34.0632C28.9989 34.2115 29.0302 34.3705 29.0301 34.531C29.0302 34.6915 28.9989 34.8505 28.9377 34.9989C28.8766 35.1472 28.787 35.282 28.6739 35.3955C28.5608 35.509 28.4266 35.599 28.2789 35.6604C28.1311 35.7218 27.9728 35.7534 27.8129 35.7532Z" fill="url(#paint1_linear_1_3370)"/>
</g>
<defs>
<linearGradient id="paint0_linear_1_3370" x1="278.42" y1="260.917" x2="1668.03" y2="1631.16" gradientUnits="userSpaceOnUse">
<stop stop-color="#387EB8"/>
<stop offset="1" stop-color="#366994"/>
</linearGradient>
<linearGradient id="paint1_linear_1_3370" x1="413.41" y1="445.957" x2="1905.41" y2="1850.75" gradientUnits="userSpaceOnUse">
<stop stop-color="#FFE052"/>
<stop offset="1" stop-color="#FFC331"/>
</linearGradient>
<clipPath id="clip0_1_3370">
<rect width="28" height="28" fill="white" transform="translate(10 10)"/>
</clipPath>
</defs>
</svg>
