<svg width="48" height="48" viewBox="0 0 48 48" fill="none" xmlns="http://www.w3.org/2000/svg">
<rect width="48" height="48" fill="#EFE6FC"/>
<path d="M37.355 21.1731C37.355 19.4302 35.1669 17.7784 31.812 16.7541C32.5862 13.3432 32.2421 10.6296 30.7259 9.76077C30.3764 9.55698 29.9679 9.46044 29.5217 9.46044V10.6564C29.769 10.6564 29.9679 10.7047 30.1345 10.7958C30.8657 11.2141 31.183 12.8069 30.9356 14.8556C30.8765 15.3597 30.7798 15.8906 30.6615 16.4323C29.6076 16.1749 28.4571 15.9765 27.2474 15.8477C26.5217 14.8556 25.769 13.9546 25.0108 13.1663C26.7635 11.5413 28.4088 10.651 29.5271 10.651V9.45508C28.0485 9.45508 26.113 10.5062 24.1561 12.3296C22.199 10.5169 20.2636 9.47653 18.7851 9.47653V10.6725C19.898 10.6725 21.5485 11.5574 23.3012 13.1716C22.5485 13.96 21.7958 14.8556 21.0807 15.8477C19.8656 15.9765 18.7151 16.1749 17.6614 16.4377C17.5377 15.9014 17.4463 15.3812 17.3817 14.8824C17.1291 12.8337 17.4409 11.2409 18.1668 10.8173C18.328 10.7207 18.5377 10.6778 18.7851 10.6778V9.48189C18.3334 9.48189 17.9248 9.57843 17.57 9.78222C16.0592 10.651 15.7205 13.3593 16.5 16.7594C13.1559 17.7891 10.9785 19.4356 10.9785 21.1731C10.9785 22.9162 13.1667 24.568 16.5215 25.5922C15.7473 29.0031 16.0914 31.7167 17.6076 32.5855C17.9571 32.7893 18.3656 32.8858 18.8173 32.8858C20.2958 32.8858 22.2313 31.8347 24.1883 30.0113C26.1452 31.824 28.0808 32.8645 29.5593 32.8645C30.0108 32.8645 30.4195 32.7679 30.7744 32.5641C32.2851 31.6952 32.6238 28.9869 31.8442 25.5869C35.1776 24.5626 37.355 22.9108 37.355 21.1731ZM30.355 17.5961C30.1561 18.2879 29.9088 19.0011 29.6291 19.7144C29.4088 19.2854 29.1776 18.8564 28.9249 18.4273C28.6776 17.9983 28.4141 17.58 28.1507 17.1724C28.9141 17.285 29.6507 17.4245 30.355 17.5961ZM27.8925 23.3076C27.4732 24.0317 27.0432 24.7181 26.5969 25.3563C25.7958 25.426 24.984 25.4635 24.1668 25.4635C23.3549 25.4635 22.5431 25.426 21.7474 25.3616C21.3012 24.7234 20.8656 24.0424 20.4463 23.3237C20.0377 22.6212 19.6668 21.9079 19.328 21.1893C19.6614 20.4706 20.0377 19.7519 20.441 19.0494C20.8603 18.3255 21.2904 17.639 21.7366 17.0008C22.5378 16.931 23.3495 16.8935 24.1668 16.8935C24.9786 16.8935 25.7905 16.931 26.5861 16.9954C27.0324 17.6336 27.4679 18.3147 27.8873 19.0334C28.2959 19.7359 28.6668 20.4492 29.0055 21.1678C28.6668 21.8864 28.2959 22.6051 27.8925 23.3076ZM29.6291 22.6105C29.9114 23.3094 30.159 24.0217 30.3711 24.7449C29.6668 24.9165 28.9249 25.0613 28.1561 25.1739C28.4195 24.761 28.6829 24.3374 28.9303 23.9029C29.1776 23.4739 29.4088 23.0394 29.6291 22.6105ZM24.1775 28.3328C23.6775 27.8178 23.1775 27.244 22.6829 26.6166C23.1668 26.638 23.6614 26.6541 24.1614 26.6541C24.6668 26.6541 25.1668 26.6434 25.6561 26.6166C25.1946 27.2148 24.701 27.7877 24.1775 28.3328ZM20.1775 25.1739C19.4141 25.0613 18.6775 24.9219 17.9732 24.7502C18.1721 24.0584 18.4195 23.3451 18.699 22.6318C18.9195 23.0609 19.1507 23.49 19.4032 23.919C19.656 24.348 19.9141 24.7663 20.1775 25.1739ZM24.1507 14.0136C24.6507 14.5284 25.1507 15.1023 25.6452 15.7298C25.1614 15.7083 24.6668 15.6922 24.1668 15.6922C23.6614 15.6922 23.1614 15.7029 22.6722 15.7298C23.1336 15.1315 23.6272 14.5587 24.1507 14.0136ZM20.1721 17.1724C19.9087 17.5853 19.6453 18.009 19.398 18.4434C19.1507 18.8724 18.9195 19.3015 18.699 19.7305C18.4167 19.0316 18.1691 18.3192 17.9571 17.5961C18.6614 17.4298 19.4032 17.285 20.1721 17.1724ZM15.3065 23.8868C13.4033 23.077 12.1721 22.0152 12.1721 21.1731C12.1721 20.3312 13.4033 19.264 15.3065 18.4595C15.7688 18.2611 16.2743 18.0841 16.7958 17.9178C17.1022 18.969 17.5054 20.063 18.0054 21.1839C17.5108 22.2994 17.1129 23.3881 16.8119 24.4339C16.2797 24.2676 15.7743 24.0853 15.3065 23.8868ZM18.199 31.5505C17.4678 31.1322 17.1505 29.5394 17.398 27.4907C17.4571 26.9867 17.5538 26.4556 17.6721 25.914C18.7259 26.1714 19.8764 26.3699 21.0861 26.4986C21.8119 27.4907 22.5646 28.3917 23.3227 29.18C21.57 30.8051 19.9248 31.6952 18.8065 31.6952C18.5646 31.69 18.3603 31.6416 18.199 31.5505ZM30.9518 27.4639C31.2044 29.5126 30.8927 31.1054 30.1668 31.529C30.0055 31.6256 29.7959 31.6685 29.5485 31.6685C28.4356 31.6685 26.7851 30.7836 25.0324 29.1693C25.7851 28.381 26.5378 27.4854 27.2528 26.4932C28.4679 26.3645 29.6184 26.166 30.6722 25.9033C30.7959 26.445 30.8927 26.9652 30.9518 27.4639ZM33.0217 23.8868C32.5593 24.0853 32.0539 24.2623 31.5324 24.4285C31.2259 23.3774 30.8227 22.2833 30.3227 21.1624C30.8174 20.0469 31.2152 18.9583 31.5162 17.9125C32.0486 18.0787 32.5539 18.2611 33.0271 18.4595C34.9303 19.2692 36.1615 20.3312 36.1615 21.1731C36.1561 22.0152 34.9249 23.0824 33.0217 23.8868Z" fill="#61DAFB"/>
<path d="M24.1621 23.6235C25.5192 23.6235 26.6192 22.5262 26.6192 21.1725C26.6192 19.819 25.5192 18.7217 24.1621 18.7217C22.8052 18.7217 21.7052 19.819 21.7052 21.1725C21.7052 22.5262 22.8052 23.6235 24.1621 23.6235ZM12.177 37.1051H11.3659V38.4985H10.9082V35.0541H12.0513C12.4402 35.0541 12.739 35.1425 12.9477 35.3191C13.158 35.4957 13.2632 35.7528 13.2632 36.0902C13.2632 36.3048 13.2047 36.4916 13.0877 36.651C12.9722 36.8102 12.811 36.9293 12.6039 37.0081L13.4149 38.4701V38.4985H12.9264L12.177 37.1051ZM11.3659 36.7337H12.0655C12.2916 36.7337 12.4711 36.6753 12.6039 36.5586C12.7382 36.442 12.8054 36.2858 12.8054 36.0902C12.8054 35.8774 12.7414 35.7142 12.6133 35.6006C12.4869 35.487 12.3035 35.4295 12.0631 35.4279H11.3659V36.7337ZM14.8996 38.5459C14.5517 38.5459 14.2687 38.4323 14.0505 38.2052C13.8323 37.9765 13.7232 37.6713 13.7232 37.2897V37.2092C13.7232 36.9553 13.7714 36.729 13.8679 36.5303C13.9659 36.33 14.1019 36.1738 14.2758 36.0619C14.4513 35.9484 14.641 35.8915 14.845 35.8915C15.1786 35.8915 15.4379 36.0011 15.6228 36.2203C15.8078 36.4396 15.9003 36.7534 15.9003 37.1618V37.344H14.162C14.1683 37.5964 14.2418 37.8007 14.3825 37.9568C14.5248 38.1113 14.705 38.1886 14.9232 38.1886C15.0782 38.1886 15.2094 38.1571 15.3169 38.094C15.4244 38.0309 15.5185 37.9473 15.5991 37.8432L15.8671 38.0514C15.652 38.381 15.3296 38.5459 14.8996 38.5459ZM14.845 36.2512C14.6679 36.2512 14.5193 36.3158 14.3991 36.4451C14.279 36.5729 14.2047 36.7527 14.1762 36.9845H15.4616V36.9514C15.449 36.729 15.3889 36.5571 15.2814 36.4356C15.1738 36.3127 15.0283 36.2512 14.845 36.2512ZM17.9944 38.4985C17.969 38.448 17.9485 38.3582 17.9327 38.2288C17.7287 38.4401 17.4853 38.5459 17.2023 38.5459C16.9493 38.5459 16.7415 38.4749 16.5786 38.3329C16.4174 38.1893 16.3367 38.008 16.3367 37.7888C16.3367 37.5223 16.4379 37.3157 16.6402 37.169C16.8441 37.0207 17.1304 36.9466 17.4987 36.9466H17.9256V36.7456C17.9256 36.5926 17.8797 36.4711 17.7881 36.3813C17.6964 36.2898 17.5611 36.2441 17.3825 36.2441C17.226 36.2441 17.0948 36.2834 16.9889 36.3623C16.883 36.4411 16.83 36.5366 16.83 36.6486H16.3889C16.3889 36.5209 16.4339 36.3978 16.524 36.2795C16.6157 36.1597 16.7391 36.065 16.894 35.9956C17.0506 35.9263 17.222 35.8915 17.4086 35.8915C17.7043 35.8915 17.9359 35.9656 18.1035 36.114C18.271 36.2606 18.358 36.4633 18.3643 36.7219V37.9C18.3643 38.135 18.3944 38.3218 18.4545 38.4606V38.4985H17.9944ZM17.2664 38.165C17.4039 38.165 17.5343 38.1295 17.6577 38.0585C17.7809 37.9875 17.8702 37.8953 17.9256 37.7817V37.2566H17.5817C17.0442 37.2566 16.7754 37.4134 16.7754 37.7273C16.7754 37.8645 16.8213 37.9718 16.9129 38.049C17.0046 38.1263 17.1225 38.165 17.2664 38.165ZM20.0813 38.1886C20.2379 38.1886 20.3747 38.1412 20.4916 38.0466C20.6086 37.952 20.6734 37.8338 20.686 37.6918H21.1012C21.0932 37.8384 21.0426 37.978 20.9493 38.1105C20.856 38.2431 20.7311 38.3487 20.5746 38.4275C20.4196 38.5064 20.2553 38.5459 20.0813 38.5459C19.732 38.5459 19.4537 38.4299 19.2465 38.1981C19.0411 37.9646 18.9383 37.6461 18.9383 37.2423V37.169C18.9383 36.9198 18.9841 36.6982 19.0758 36.5043C19.1675 36.3103 19.2987 36.1597 19.4695 36.0525C19.6418 35.9451 19.845 35.8915 20.0789 35.8915C20.3667 35.8915 20.6055 35.9775 20.7952 36.1495C20.9865 36.3213 21.0884 36.5445 21.1012 36.8189H20.686C20.6734 36.6533 20.6102 36.5176 20.4963 36.412C20.3842 36.3048 20.245 36.2512 20.0789 36.2512C19.856 36.2512 19.6829 36.3315 19.5596 36.4924C19.4379 36.6517 19.377 36.8828 19.377 37.1856V37.2683C19.377 37.5632 19.4379 37.7904 19.5596 37.9496C19.6814 38.109 19.8553 38.1886 20.0813 38.1886ZM22.1896 35.3191V35.9389H22.6687V36.2772H22.1896V37.8645C22.1896 37.967 22.211 38.0442 22.2537 38.0963C22.2964 38.1468 22.3691 38.1721 22.4719 38.1721C22.5224 38.1721 22.592 38.1626 22.6805 38.1436V38.4985C22.5651 38.53 22.4529 38.5459 22.3438 38.5459C22.1478 38.5459 21.9999 38.4866 21.9003 38.3684C21.8007 38.2501 21.751 38.0821 21.751 37.8645V36.2772H21.2837V35.9389H21.751V35.3191H22.1896ZM27.1107 38.4985H26.6529L24.9146 35.8443V38.4985H24.4569V35.0541H24.9146L26.6577 37.7202V35.0541H27.1107V38.4985ZM29.4348 38.4985C29.4094 38.448 29.3888 38.3582 29.3731 38.2288C29.1691 38.4401 28.9256 38.5459 28.6426 38.5459C28.3897 38.5459 28.1817 38.4749 28.0189 38.3329C27.8577 38.1893 27.777 38.008 27.777 37.7888C27.777 37.5223 27.8781 37.3157 28.0806 37.169C28.2845 37.0207 28.5707 36.9466 28.9391 36.9466H29.366V36.7456C29.366 36.5926 29.3201 36.4711 29.2283 36.3813C29.1367 36.2898 29.0015 36.2441 28.8228 36.2441C28.6663 36.2441 28.5352 36.2834 28.4292 36.3623C28.3233 36.4411 28.2703 36.5366 28.2703 36.6486H27.8292C27.8292 36.5209 27.8743 36.3978 27.9643 36.2795C28.0561 36.1597 28.1794 36.065 28.3344 35.9956C28.4909 35.9263 28.6623 35.8915 28.8489 35.8915C29.1446 35.8915 29.3762 35.9656 29.5438 36.114C29.7114 36.2606 29.7983 36.4633 29.8047 36.7219V37.9C29.8047 38.135 29.8347 38.3218 29.8948 38.4606V38.4985H29.4348ZM28.7067 38.165C28.8442 38.165 28.9747 38.1295 29.098 38.0585C29.2213 37.9875 29.3106 37.8953 29.366 37.7817V37.2566H29.022C28.4845 37.2566 28.2157 37.4134 28.2157 37.7273C28.2157 37.8645 28.2616 37.9718 28.3533 38.049C28.445 38.1263 28.5628 38.165 28.7067 38.165ZM31.0877 35.3191V35.9389H31.5668V36.2772H31.0877V37.8645C31.0877 37.967 31.1091 38.0442 31.1518 38.0963C31.1944 38.1468 31.2672 38.1721 31.37 38.1721C31.4205 38.1721 31.4901 38.1626 31.5787 38.1436V38.4985C31.4631 38.53 31.351 38.5459 31.2418 38.5459C31.0458 38.5459 30.898 38.4866 30.7983 38.3684C30.6988 38.2501 30.649 38.0821 30.649 37.8645V36.2772H30.1818V35.9389H30.649V35.3191H31.0877ZM32.5581 38.4985H32.1193V35.9389H32.5581V38.4985ZM32.0837 35.2599C32.0837 35.189 32.1051 35.1291 32.1478 35.0801C32.192 35.0312 32.2568 35.0069 32.3422 35.0069C32.4277 35.0069 32.4925 35.0312 32.5367 35.0801C32.5809 35.1291 32.6031 35.189 32.6031 35.2599C32.6031 35.3309 32.5809 35.39 32.5367 35.4374C32.4925 35.4846 32.4277 35.5084 32.3422 35.5084C32.2568 35.5084 32.192 35.4846 32.1478 35.4374C32.1051 35.39 32.0837 35.3309 32.0837 35.2599ZM34.1091 37.9048L34.7446 35.9389H35.1929L34.2727 38.4985H33.9382L33.0087 35.9389H33.4569L34.1091 37.9048ZM36.6466 38.5459C36.2988 38.5459 36.0158 38.4323 35.7976 38.2052C35.5794 37.9765 35.4703 37.6713 35.4703 37.2897V37.2092C35.4703 36.9553 35.5185 36.729 35.615 36.5303C35.7129 36.33 35.8489 36.1738 36.0229 36.0619C36.1984 35.9484 36.3881 35.8915 36.592 35.8915C36.9256 35.8915 37.1849 36.0011 37.3699 36.2203C37.5548 36.4396 37.6474 36.7534 37.6474 37.1618V37.344H35.909C35.9154 37.5964 35.9889 37.8007 36.1296 37.9568C36.2719 38.1113 36.4522 38.1886 36.6703 38.1886C36.8252 38.1886 36.9565 38.1571 37.064 38.094C37.1715 38.0309 37.2656 37.9473 37.3463 37.8432L37.6142 38.0514C37.3992 38.381 37.0766 38.5459 36.6466 38.5459ZM36.592 36.2512C36.415 36.2512 36.2663 36.3158 36.1462 36.4451C36.026 36.5729 35.9517 36.7527 35.9233 36.9845H37.2086V36.9514C37.196 36.729 37.1359 36.5571 37.0284 36.4356C36.9209 36.3127 36.7755 36.2512 36.592 36.2512Z" fill="#61DAFB"/>
</svg>
