<svg width="48" height="48" viewBox="0 0 48 48" fill="none" xmlns="http://www.w3.org/2000/svg">
<rect width="48" height="48" fill="#EFE6FC"/>
<path d="M38 23.5075C38 21.6471 35.6771 19.884 32.1158 18.7907C32.9376 15.1501 32.5724 12.2536 30.9629 11.3263C30.5919 11.1088 30.1582 11.0057 29.6845 11.0057V12.2822C29.947 12.2822 30.1582 12.3338 30.3351 12.4311C31.1113 12.8776 31.448 14.5777 31.1855 16.7643C31.1227 17.3024 31.02 17.8691 30.8944 18.4473C29.7758 18.1725 28.5544 17.9607 27.2703 17.8233C26.4998 16.7643 25.7008 15.8026 24.896 14.9612C26.7566 13.2267 28.5031 12.2765 29.6902 12.2765V11C28.1207 11 26.066 12.122 23.9886 14.0682C21.9111 12.1334 19.8565 11.0229 18.287 11.0229V12.2994C19.4684 12.2994 21.2205 13.2439 23.0811 14.9669C22.2821 15.8084 21.4831 16.7643 20.724 17.8233C19.4342 17.9607 18.2128 18.1725 17.0942 18.453C16.9629 17.8806 16.8659 17.3253 16.7974 16.7929C16.5291 14.6063 16.8602 12.9062 17.6307 12.454C17.8019 12.3509 18.0245 12.3051 18.287 12.3051V11.0286C17.8076 11.0286 17.3738 11.1317 16.9971 11.3492C15.3934 12.2765 15.0338 15.1673 15.8614 18.7964C12.3115 19.8955 10 21.6528 10 23.5075C10 25.3679 12.3229 27.131 15.8842 28.2243C15.0624 31.8649 15.4276 34.7614 17.0371 35.6887C17.4081 35.9062 17.8418 36.0093 18.3212 36.0093C19.8907 36.0093 21.9454 34.8873 24.0228 32.9411C26.1003 34.8759 28.1549 35.9864 29.7244 35.9864C30.2038 35.9864 30.6376 35.8833 31.0143 35.6658C32.618 34.7385 32.9776 31.8477 32.15 28.2186C35.6885 27.1252 38 25.3622 38 23.5075ZM30.5691 19.6894C30.3579 20.4278 30.0954 21.1892 29.7986 21.9505C29.5646 21.4926 29.3192 21.0346 29.051 20.5767C28.7884 20.1187 28.5088 19.6722 28.2291 19.2372C29.0395 19.3574 29.8214 19.5062 30.5691 19.6894ZM27.9552 25.7858C27.51 26.5585 27.0534 27.2912 26.5797 27.9724C25.7293 28.0468 24.8675 28.0869 24 28.0869C23.1382 28.0869 22.2764 28.0468 21.4317 27.9781C20.958 27.297 20.4957 26.57 20.0506 25.8029C19.6168 25.053 19.223 24.2917 18.8634 23.5247C19.2173 22.7576 19.6168 21.9906 20.0448 21.2407C20.49 20.4679 20.9466 19.7352 21.4203 19.054C22.2707 18.9796 23.1325 18.9395 24 18.9395C24.8618 18.9395 25.7236 18.9796 26.5683 19.0483C27.042 19.7295 27.5043 20.4565 27.9495 21.2235C28.3832 21.9734 28.777 22.7347 29.1366 23.5018C28.777 24.2688 28.3832 25.0359 27.9552 25.7858ZM29.7986 25.0416C30.1068 25.8086 30.3693 26.5757 30.5862 27.3199C29.8386 27.503 29.051 27.6576 28.2348 27.7778C28.5145 27.337 28.7941 26.8848 29.0567 26.4211C29.3192 25.9632 29.5646 25.4995 29.7986 25.0416ZM24.0114 31.1494C23.4806 30.5998 22.9499 29.9874 22.4248 29.3176C22.9384 29.3405 23.4635 29.3577 23.9943 29.3577C24.5308 29.3577 25.0616 29.3462 25.5809 29.3176C25.0673 29.9874 24.5365 30.5998 24.0114 31.1494ZM19.7652 27.7778C18.9547 27.6576 18.1728 27.5088 17.4252 27.3256C17.6364 26.5871 17.8989 25.8258 18.1957 25.0645C18.4297 25.5224 18.6751 25.9804 18.9433 26.4383C19.2116 26.8963 19.4855 27.3427 19.7652 27.7778ZM23.9829 15.8656C24.5137 16.4151 25.0444 17.0276 25.5695 17.6974C25.0559 17.6745 24.5308 17.6573 24 17.6573C23.4635 17.6573 22.9327 17.6688 22.4134 17.6974C22.927 17.0276 23.4578 16.4151 23.9829 15.8656ZM19.7595 19.2372C19.4798 19.678 19.2002 20.1302 18.9376 20.5939C18.6751 21.0518 18.4297 21.5097 18.1957 21.9677C17.8875 21.2006 17.6249 20.4336 17.4081 19.6894C18.1557 19.512 18.9433 19.3574 19.7595 19.2372ZM14.5944 26.404C12.574 25.5396 11.267 24.4062 11.267 23.5075C11.267 22.6088 12.574 21.4697 14.5944 20.611C15.0852 20.3992 15.6217 20.2103 16.1753 20.0329C16.5006 21.1548 16.9287 22.3226 17.4594 23.5189C16.9344 24.7096 16.512 25.8716 16.1924 26.9878C15.6274 26.8104 15.0909 26.6158 14.5944 26.404ZM17.6649 34.5839C16.8887 34.1374 16.552 32.4373 16.8145 30.2507C16.8773 29.7126 16.98 29.1459 17.1056 28.5677C18.2242 28.8425 19.4456 29.0543 20.7297 29.1917C21.5002 30.2507 22.2992 31.2123 23.104 32.0538C21.2434 33.7883 19.4969 34.7385 18.3098 34.7385C18.053 34.7328 17.8361 34.6812 17.6649 34.5839ZM31.2026 30.222C31.4709 32.4087 31.1398 34.1088 30.3693 34.561C30.1981 34.6641 29.9755 34.7099 29.713 34.7099C28.5316 34.7099 26.7795 33.7654 24.9189 32.0424C25.7179 31.2009 26.5169 30.2449 27.276 29.186C28.5658 29.0486 29.7872 28.8368 30.9058 28.5563C31.0371 29.1344 31.1398 29.6897 31.2026 30.222ZM33.3999 26.404C32.9091 26.6158 32.3726 26.8047 31.819 26.9821C31.4937 25.8602 31.0656 24.6924 30.5349 23.496C31.0599 22.3054 31.4823 21.1434 31.8019 20.0272C32.3669 20.2046 32.9034 20.3992 33.4056 20.611C35.426 21.4754 36.733 22.6088 36.733 23.5075C36.7273 24.4062 35.4203 25.5453 33.3999 26.404Z" fill="#61DAFB"/>
<path d="M23.995 26.1236C25.4354 26.1236 26.6032 24.9524 26.6032 23.5076C26.6032 22.0628 25.4354 20.8916 23.995 20.8916C22.5545 20.8916 21.3867 22.0628 21.3867 23.5076C21.3867 24.9524 22.5545 26.1236 23.995 26.1236Z" fill="#61DAFB"/>
</svg>
