<svg width="48" height="48" viewBox="0 0 48 48" fill="none" xmlns="http://www.w3.org/2000/svg">
<rect width="48" height="48" fill="#EFE6FC"/>
<g clip-path="url(#clip0_1_3124)">
<path d="M10 24V10H38V38H10" fill="#007ACC"/>
<path d="M16.1387 24.0493V25.1903H19.7787V35.5503H22.3617V25.1903H26.0017V24.0703C26.0017 23.4403 26.0017 22.9293 25.9737 22.9153C25.9737 22.8943 23.7547 22.8873 21.0597 22.8873L16.1597 22.9083V24.0563L16.1387 24.0493ZM32.4977 22.8803C33.2117 23.0483 33.7577 23.3703 34.2477 23.8813C34.5067 24.1613 34.8917 24.6513 34.9197 24.7773C34.9197 24.8193 33.7087 25.6383 32.9737 26.0933C32.9457 26.1143 32.8337 25.9953 32.7217 25.8133C32.3577 25.2953 31.9867 25.0713 31.4057 25.0293C30.5657 24.9733 30.0057 25.4143 30.0057 26.1493C30.0057 26.3733 30.0477 26.4993 30.1317 26.6813C30.3207 27.0663 30.6707 27.2973 31.7557 27.7733C33.7577 28.6343 34.6257 29.2013 35.1507 30.0133C35.7457 30.9233 35.8787 32.3513 35.4797 33.4223C35.0317 34.5913 33.9397 35.3823 32.3787 35.6413C31.8887 35.7253 30.7687 35.7113 30.2437 35.6203C29.1237 35.4103 28.0527 34.8503 27.3947 34.1293C27.1357 33.8493 26.6387 33.1003 26.6667 33.0513L26.9327 32.8833L27.9827 32.2743L28.7737 31.8123L28.9557 32.0573C29.1867 32.4213 29.7047 32.9113 30.0057 33.0793C30.9157 33.5483 32.1337 33.4853 32.7357 32.9393C32.9947 32.7013 33.1067 32.4493 33.1067 32.0993C33.1067 31.7773 33.0577 31.6303 32.8967 31.3853C32.6727 31.0773 32.2247 30.8253 30.9647 30.2653C29.5157 29.6493 28.8997 29.2573 28.3257 28.6553C27.9967 28.2913 27.6957 27.7243 27.5557 27.2553C27.4507 26.8493 27.4157 25.8553 27.5137 25.4563C27.8147 24.0563 28.8717 23.0763 30.3837 22.7963C30.8737 22.6983 32.0287 22.7403 32.5117 22.8663L32.4977 22.8803Z" fill="white"/>
</g>
<defs>
<clipPath id="clip0_1_3124">
<rect width="28" height="28" fill="white" transform="translate(10 10)"/>
</clipPath>
</defs>
</svg>
