<svg width="9" height="8" viewBox="0 0 9 8" fill="none" xmlns="http://www.w3.org/2000/svg">
<path d="M4.25574 0C1.8999 0 0 1.5199 0 3.36508C0 4.56279 0.790356 5.61154 1.97589 6.21035L1.57463 7.70904C1.56707 7.73145 1.56591 7.75561 1.57128 7.77863C1.57665 7.80172 1.58833 7.82293 1.60503 7.83974C1.62939 7.86117 1.66072 7.87305 1.69319 7.87313C1.72011 7.87101 1.74565 7.86033 1.76614 7.84277L3.49277 6.67854C3.74764 6.71367 4.00456 6.73192 4.26187 6.73321C6.61471 6.73321 8.5176 5.21332 8.5176 3.36508C8.5176 1.51686 6.60857 0 4.25574 0Z" fill="#392020"/>
</svg>
